<?xml version="1.0" encoding="utf-8"?>
<!-- Generator: Adobe Illustrator 28.0.0, SVG Export Plug-In . SVG Version: 6.00 Build 0)  -->
<svg version="1.1" id="Layer_1" xmlns="http://www.w3.org/2000/svg" xmlns:xlink="http://www.w3.org/1999/xlink" x="0px" y="0px"
	 viewBox="0 0 2000 1500" style="enable-background:new 0 0 2000 1500;" xml:space="preserve">
<rect x="0" y="0" style="fill:#FFFFFF;" width="2000" height="1500"/>
<g>
	<g>
		<g>
			<polygon style="fill:#F6F6F7;" points="1102.971,812.762 1051.949,814.971 1034.132,855.497 1117.548,848.077 			"/>
		</g>
	</g>
	<g>
		<g>
			<g>
				<path style="fill:#C59FF5;" d="M818.116,353.815c-0.977-0.858-2.465-0.763-3.326,0.213c-0.859,0.977-0.764,2.466,0.213,3.326
					l74.07,65.16c0.448,0.394,1.003,0.587,1.556,0.587c0.653,0,1.304-0.271,1.77-0.8c0.859-0.977,0.764-2.466-0.213-3.326
					L818.116,353.815z"/>
			</g>
		</g>
		<g>
			<g>
				<path style="fill:#C59FF5;" d="M665.779,226.08c0.448,0.393,1.003,0.587,1.555,0.587c0.654,0,1.304-0.271,1.77-0.8
					c0.859-0.977,0.764-2.466-0.213-3.326l-44.717-39.338c-0.977-0.857-2.465-0.763-3.326,0.213
					c-0.859,0.977-0.764,2.466,0.213,3.326L665.779,226.08z"/>
			</g>
		</g>
		<g>
			<g>
				<path style="fill:#C59FF5;" d="M691.476,353.815l-74.069,65.16c-0.977,0.86-1.072,2.349-0.213,3.326
					c0.466,0.529,1.117,0.8,1.77,0.8c0.553,0,1.108-0.193,1.556-0.587l74.069-65.16c0.977-0.86,1.072-2.349,0.213-3.326
					C693.941,353.052,692.453,352.957,691.476,353.815z"/>
			</g>
		</g>
		<g>
			<g>
				<path style="fill:#C59FF5;" d="M842.256,226.667c0.553,0,1.108-0.193,1.556-0.587l48.373-42.554
					c0.977-0.86,1.072-2.349,0.213-3.326c-0.861-0.976-2.348-1.071-3.326-0.213l-48.373,42.554c-0.977,0.86-1.072,2.349-0.213,3.326
					C840.952,226.396,841.603,226.667,842.256,226.667z"/>
			</g>
		</g>
	</g>
	<g>
		<g>
			<path style="fill:#FFB197;" d="M843.516,555.561c3.8-9.055,2.445-24.006,2.148-34.035c-0.219-7.417,0.981-13.953,1.972-17.979
				l0.62-2.133c0.947-3.256-1.201-6.597-4.554-7.1c-4.139-0.621-8.769,0.715-10.267,5.381l-6.771,21.299l-17.317-52.618
				c-1.173-3.566-4.898-5.624-8.541-4.717l-0.212,0.053c-4.064,1.011-6.399,5.274-5.064,9.243l9.879,29.937l0,0
				c-1.255-3.802-5.391-5.886-9.193-4.631c-3.802,1.254-5.886,5.391-4.631,9.193c-1.255-3.802-5.391-5.886-9.193-4.631
				c-3.802,1.255-5.885,5.392-4.631,9.193l1.582,4.793c-1.255-3.801-5.391-5.886-9.193-4.631c-3.801,1.255-5.885,5.392-4.631,9.193
				l7.234,21.924c0.331,1.003,0.871,1.876,1.544,2.61c1.168,3.11,2.147,5.569,2.856,7.113c4.528,9.863,12.703,16.022,19.056,19.546
				l11.897,32.833c18.86-12.07,38.268-15.516,48.702-16.478L843.516,555.561z"/>
		</g>
	</g>
	<g>
		<g>
			<polygon style="fill:#FF9497;" points="1107.124,1031.204 1112.128,1060.372 1151.25,1060.372 1154.492,1023.009 			"/>
		</g>
	</g>
	<g>
		<g>
			<path style="fill:#FF9497;" d="M991.369,1030.999c-0.403-1.719-0.756-3.438-1.065-5.154l-49.483,3.777v2.607
				c0,15.543,12.6,28.143,28.143,28.143h29.295L991.369,1030.999z"/>
		</g>
	</g>
	<g>
		<g>
			<path style="fill:#FF9497;" d="M1234.938,914.156l-19.688,146.215h25.553c42,0,77.539-30.907,83.484-72.484
				c2.971-20.777,5.347-45.569,6.008-73.731H1234.938z"/>
		</g>
	</g>
	<g>
		<g>
			<g>
				<path style="fill:#FF9497;" d="M1332.333,739.565c2.735,4.912,4.758,9.948,6.195,15.02l0.812-15.736
					c1.498-29.033-16.706-54.312-42.644-63.293L1332.333,739.565z"/>
			</g>
		</g>
		<g>
			<g>
				<path style="fill:#FF9497;" d="M1272.206,841.861h61.819l2.258-43.763C1326.491,822.93,1302.605,841.861,1272.206,841.861z"/>
			</g>
		</g>
	</g>
	<g>
		<g>
			<path style="fill:#4F667D;" d="M1130.034,878.009h-91.942c-1.38,8.029-7.814,14.231-15.888,15.316l-136.247,18.307
				c-56.992,8.083-94.765,63.327-81.617,119.368l53.909,229.79c0,0,67.727,0.619,97.419-22.269l-35.573-207.317l70.21-5.359
				c-9.744-54.232,27.439-106.378,82.682-114.214l57.452-8.148L1130.034,878.009z"/>
		</g>
	</g>
	<g>
		<g>
			<path style="fill:#4F667D;" d="M1162.161,934.644c-18.532-1.579-31.353-7.884-31.353-7.884l-0.37-23.277l-57.452,8.148
				c-56.992,8.083-94.765,63.327-81.618,119.368l53.909,229.79c0,0,57.896,0.527,90.097-17.485l2.735-31.517l-30.986-180.583
				l47.369-8.195L1162.161,934.644z"/>
		</g>
	</g>
	<g>
		<g>
			<path style="fill:#FFB197;" d="M1134.822,470.948c-7.191-6.727-19.021,3.712-19.021,3.712c0-10.207,3.712-21.341,3.712-21.341
				c-46.857,5.103-75.176-38.004-75.176-38.004c-3.016,5.278-11.656,23.294-11.656,56.483c0,24.928,10.581,44.863,28.205,50.223
				l-3.539,24.663l-11.731,247.668l43.918-0.861l-0.872-8.982l40.375-5.609l-6.884-239.018l-2.871-38.671
				C1138.371,503.481,1141.504,477.2,1134.822,470.948z"/>
		</g>
	</g>
	<g>
		<g>
			<path style="fill:#1C3C4F;" d="M1172.614,519.889c-5.153-8.194-12.287-23.028-11.889-41.904
				c0.589-27.946,3.135-129.158-110.514-108.382c-10.853,1.984-17.746,12.692-15.283,23.446c0.593,2.588,1.273,5.163,2.046,7.527
				c0,0-26.716,16.325-18.829,34.651c5.945,13.813,12.017,20.381,14.649,30.226c1.005-29.15,8.726-45.206,11.544-50.137
				c0,0,28.319,43.107,75.176,38.004c0,0-3.712,11.134-3.712,21.341c0,0,11.83-10.438,19.021-3.712
				c6.682,6.251,3.549,32.533-15.541,30.264l2.871,38.671l23.572,9.701c0.938,0.078,1.848,0.174,2.776,0.259
				c7.413-4.261,14.847-9.597,22.224-16.203C1174.626,530.146,1175.402,524.324,1172.614,519.889z"/>
		</g>
	</g>
	<g>
		<g>
			<path style="fill:#1C3C4F;" d="M1033.522,483.435c-1.971,11.899-8.419,25.567-15.123,37.911
				c-4.267,7.855-1.557,17.633,6.121,22.211c5.876,3.503,13.467,7.511,22.35,11.069l10.475-7.941l3.539-24.663
				C1046.109,517.528,1036.312,502.772,1033.522,483.435z"/>
		</g>
	</g>
	<g>
		<g>
			<polygon style="fill:#F6F6F7;" points="1454.511,878.009 1408.159,878.009 1481.495,1422.652 1501.776,1422.652 			"/>
		</g>
	</g>
	<g>
		<g>
			<path style="fill:#F4A37A;" d="M1003.366,1082.137l-36.836-10.872l-17.632,127.801l6.77,39.454
				c-3.019,2.327-6.437,4.408-10.131,6.274c0,0,0.001,0,0.002-0.001l12.156,56.526c1.565,7.277,4.685,14.07,8.813,20.252
				l41.143-221.174L1003.366,1082.137z"/>
		</g>
	</g>
	<g>
		<g>
			<path style="fill:#C46C3F;" d="M1004.727,1087.94l-1.362-5.804l-36.836-10.872l-1.844,13.368
				c4.424,2.119,9.374,3.308,14.598,3.308H1004.727z"/>
		</g>
	</g>
	<g>
		<g>
			<polygon style="fill:#F6F6F7;" points="1166.468,1422.652 1239.805,878.009 1193.453,878.009 1146.188,1422.652 			"/>
		</g>
	</g>
	<g>
		<g>
			<polygon style="fill:#E4E6EC;" points="1146.188,1422.652 1193.453,878.009 1167.076,878.009 1119.81,1422.652 			"/>
		</g>
	</g>
	<g>
		<g>
			<polygon style="fill:#E4E6EC;" points="1386.648,914.156 1455.118,1422.652 1481.495,1422.652 1413.026,914.156 			"/>
		</g>
	</g>
	<g>
		<g>
			<g>
				<polygon style="fill:#F6F6F7;" points="1413.026,914.156 1408.159,878.009 1239.805,878.009 1234.938,914.156 				"/>
			</g>
		</g>
	</g>
	<g>
		<g>
			<polygon style="fill:#F6F6F7;" points="752.881,878.009 706.529,878.009 779.866,1422.652 800.146,1422.652 			"/>
		</g>
	</g>
	<g>
		<g>
			<polygon style="fill:#F6F6F7;" points="464.838,1422.652 538.175,878.009 491.824,878.009 444.558,1422.652 			"/>
		</g>
	</g>
	<g>
		<g>
			<polygon style="fill:#E4E6EC;" points="465.446,878.008 418.181,1422.652 444.558,1422.652 491.824,878.008 			"/>
		</g>
	</g>
	<g>
		<g>
			<polygon style="fill:#E4E6EC;" points="685.018,914.156 753.488,1422.652 779.866,1422.652 711.396,914.156 			"/>
		</g>
	</g>
	<g>
		<g>
			<g>
				<polygon style="fill:#F6F6F7;" points="711.396,914.156 706.529,878.009 538.175,878.009 533.308,914.156 				"/>
			</g>
		</g>
	</g>
	<g>
		<g>
			<path style="fill:#1C3C4F;" d="M926.627,1012.639c0.432-1.308-0.278-2.718-1.584-3.151c-1.313-0.434-2.719,0.278-3.151,1.584
				c-2.137,6.461-2.789,13.401-1.797,20.132l5.054-0.386C924.197,1024.747,924.697,1018.474,926.627,1012.639z"/>
		</g>
	</g>
	<g>
		<g>
			<g>
				<path style="fill:#1C3C4F;" d="M1114.609,1009.598c0.485-1.289-0.166-2.727-1.455-3.213c-1.29-0.484-2.727,0.166-3.213,1.455
					c-2.805,7.45-3.738,15.475-2.774,23.356l4.915-0.85C1111.265,1023.341,1112.117,1016.217,1114.609,1009.598z"/>
			</g>
		</g>
	</g>
	<g>
		<g>
			<path style="fill:#FFB197;" d="M967.529,1323.089c-4.644-6.579-8.142-13.895-9.835-21.768l-12.156-56.526
				c-20.462,10.339-49.567,14.002-68.443,15.294l13.879,62.804c1.86,8.415,1.527,17.193-1.159,25.382
				c-3.844,11.717-11.513,27.399-26.16,34.993c-25.052,12.99-53.352,11.502-49.64,39.386h89.075l44.537-33.819l8.351,33.819h28.422
				l-6.124-70.206C977.353,1341.88,973.644,1331.75,967.529,1323.089z"/>
		</g>
	</g>
	<g>
		<g>
			<path style="fill:#1C3C4F;" d="M969.709,1326.42c-1.602,5.437-5.712,11.746-15.588,16.021
				c-14.523,6.286-41.961,29.893-57.076,43.452c-10.776,9.667-25.567,13.951-39.675,10.704c-4.417-1.016-8.772-2.782-12.636-5.592
				c-18.321,6.355-33.499,10.763-30.719,31.647h89.075l44.537-33.819l8.351,33.819h28.422l-6.124-70.206
				C977.469,1343.206,974.523,1334.303,969.709,1326.42z"/>
		</g>
	</g>
	<g>
		<g>
			<path style="fill:#FFB197;" d="M1064.126,1260.085l-0.002,0.003l13.879,62.804c1.86,8.415,1.528,17.193-1.159,25.382
				c-3.844,11.717-11.513,27.399-26.16,34.993c-25.052,12.99-53.352,11.502-49.641,39.386h89.075l31.787-24.137l13.469-155.211
				C1114.842,1254.79,1083.882,1258.732,1064.126,1260.085z"/>
		</g>
	</g>
	<g>
		<g>
			<g>
				<path style="fill:#1C3C4F;" d="M1125.982,1351.538c-14.145,9.963-31.148,24.703-41.908,34.356
					c-10.776,9.667-25.567,13.951-39.675,10.704c-4.417-1.016-8.772-2.782-12.636-5.592c-18.321,6.355-33.499,10.763-30.719,31.647
					h89.075l31.787-24.137L1125.982,1351.538z"/>
			</g>
		</g>
	</g>
	<g>
		<g>
			<g>
				<path style="fill:#E85D62;" d="M1253.415,1006.24c-1.089,0-2.089-0.718-2.399-1.817c-0.373-1.326,0.398-2.703,1.723-3.077
					c7.715-2.175,13.824-4.996,19.227-8.877c16.867-12.116,24.158-35.692,27.304-53.335c0.242-1.356,1.539-2.257,2.892-2.017
					c1.356,0.242,2.259,1.537,2.017,2.892c-3.308,18.554-11.078,43.419-29.304,56.511c-5.888,4.229-12.492,7.289-20.782,9.627
					C1253.867,1006.209,1253.639,1006.24,1253.415,1006.24z"/>
			</g>
		</g>
	</g>
	<g>
		<g>
			<path style="fill:#4F667D;" d="M1253.64,914.156h-18.702l-12.488,92.74c7.507-4.081,13.619-10.517,17.269-18.503
				C1247.728,970.872,1256.868,943.447,1253.64,914.156z"/>
		</g>
	</g>
	<g>
		<g>
			<path style="fill:#FFC71C;" d="M1332.333,739.565L1245.09,582.87c-4.159-7.47-10.854-13.217-18.895-16.121
				c-15.463-5.584-44.03-14.139-80.471-17.164l-23.572-9.701l6.884,239.018l-40.375,5.609l5.567,57.35h177.978
				C1324.707,841.861,1357.872,785.436,1332.333,739.565z"/>
		</g>
	</g>
	<g>
		<g>
			<g>
				<path style="fill:#F99132;" d="M1210.13,609.536c-0.326-0.065-0.643-0.196-0.933-0.398c-1.131-0.785-1.412-2.339-0.627-3.47
					l12.674-18.262c0.786-1.131,2.339-1.413,3.47-0.627c1.131,0.785,1.412,2.339,0.627,3.47l-12.674,18.262
					C1212.084,609.353,1211.074,609.724,1210.13,609.536z"/>
			</g>
		</g>
	</g>
	<g>
		<g>
			<path style="fill:#FFC71C;" d="M1035.773,563.039l-46.625,15.251c-12.372,4.047-22.252,13.47-26.879,25.637L921.182,711.96
				l-56.6-123.405c0,0-36.032-1.082-66.15,23.883l17.12,52.666h55.266h0c4.327,0,8.079,2.99,9.045,7.207l34.226,149.331h26.732
				c0,0,35.176-36.683,50.325-84.154c7.213,24.055,8.725,47.7,8.231,66.4c0.019,0,0.038-0.004,0.057-0.004h13.165l2.436-1.749
				c6.7-4.809,14.702-7.47,22.948-7.632l7.631-0.149l11.73-247.668L1035.773,563.039z"/>
		</g>
	</g>
	<g>
		<g>
			<path style="fill:#F99132;" d="M988.676,729.194c-16.409-53.908-0.324-86.898-0.16-87.224c0.62-1.228,0.129-2.727-1.098-3.348
				c-1.226-0.623-2.729-0.133-3.352,1.097c-0.71,1.401-17.198,34.959-0.162,90.929c1.561,5.127,2.904,10.438,4.073,15.88
				c1.093-2.869,2.218-6.081,3.169-9.04C990.406,734.584,989.531,732.004,988.676,729.194z"/>
		</g>
	</g>
	<g>
		<g>
			<path style="fill:#FFC71C;" d="M1022.204,893.324c8.074-1.085,14.508-7.287,15.888-15.316h-51.96l-5.559,20.909L1022.204,893.324
				z"/>
		</g>
	</g>
	<g>
		<g>
			<g>
				<path style="fill:#FFC71C;" d="M1130.808,926.76c0,0,12.821,6.305,31.353,7.884l4.915-56.635h-37.042L1130.808,926.76z"/>
			</g>
		</g>
	</g>
	<g>
		<g>
			<path style="fill:#F99132;" d="M921.118,711.82c0.914,3.816,1.809,8.831,2.059,14.53c0.058,1.339,1.162,2.385,2.49,2.385
				c0.036,0,0.073-0.001,0.11-0.002c1.376-0.06,2.443-1.224,2.382-2.6c-0.449-10.28-2.833-18.415-4.029-21.923l-2.948,7.75
				L921.118,711.82z"/>
		</g>
	</g>
	<g>
		<g>
			<path style="fill:#FFB197;" d="M1089.533,793.493l-51.549,1.01c-8.246,0.162-16.248,2.823-22.948,7.632l-40.316,28.937
				c-4.699,3.373-2.313,10.789,3.471,10.789h70.262c13.299,0,20.722-10.11,20.722-10.11l23.952-1.217L1089.533,793.493z"/>
		</g>
	</g>
	<g>
		<g>
			<path style="fill:#EF7756;" d="M1069.176,831.751l6.053-0.308l3.461-5.597c0.724-1.171,0.362-2.708-0.809-3.433
				c-1.174-0.724-2.709-0.361-3.433,0.809l-5.282,8.541C1069.167,831.763,1069.176,831.751,1069.176,831.751z"/>
		</g>
	</g>
	<g>
		<g>
			<g>
				<path style="fill:#EF7756;" d="M982.29,848.077c-0.783,0-1.554-0.368-2.04-1.056c-0.794-1.125-0.526-2.68,0.6-3.475
					l39.837-28.118c1.125-0.795,2.68-0.525,3.475,0.6c0.794,1.125,0.526,2.68-0.6,3.475l-39.837,28.118
					C983.289,847.93,982.787,848.077,982.29,848.077z"/>
			</g>
		</g>
	</g>
	<g>
		<g>
			<path style="fill:#EF9E89;" d="M987.835,810.79c-1.363,2.773-1.863,6.386,0.024,10.851l24.74-17.757h-13.165
				C994.594,803.884,989.97,806.446,987.835,810.79z"/>
		</g>
	</g>
	<g>
		<g>
			<g>
				<path style="fill:#EF7756;" d="M998.638,853.327c-0.822,0-1.627-0.406-2.103-1.149c-0.742-1.16-0.403-2.702,0.757-3.445
					l34.972-22.378c1.162-0.742,2.702-0.403,3.445,0.757c0.742,1.16,0.403,2.702-0.756,3.445l-34.973,22.378
					C999.563,853.2,999.098,853.327,998.638,853.327z"/>
			</g>
		</g>
	</g>
	<g>
		<g>
			<path style="fill:#F6F6F7;" d="M1129.036,778.901l-4.534-157.433c-29.799,21.246-58.789,12.26-70.865,3.518l-8.022,169.367
				l43.918-0.861l-0.872-8.982L1129.036,778.901z"/>
		</g>
	</g>
	<g>
		<g>
			<g>
				<path style="fill:#EF7756;" d="M826.664,520.993l-1.742-5.294c-2.603,2.193-7.998,7.497-10.39,15.297
					c0.197,1.603-0.175,3.182-0.958,4.532c-0.975,7.835,1.574,15.811,7.65,23.72c0.491,0.64,1.231,0.975,1.979,0.975
					c0.53,0,1.064-0.168,1.517-0.516c1.093-0.839,1.298-2.404,0.459-3.496c-5.394-7.023-7.619-13.963-6.612-20.626
					C819.599,528.761,823.85,523.737,826.664,520.993z"/>
			</g>
		</g>
	</g>
	<g>
		<g>
			<path style="fill:#F6F6F7;" d="M1130.034,878.009h-91.942c-0.684,3.977-2.61,7.504-5.36,10.184
				c4.429,6.35,15.575,18.36,38.902,23.667c0.453-0.071,0.896-0.164,1.351-0.229l57.452-8.148L1130.034,878.009z"/>
		</g>
	</g>
	<g>
		<g>
			<polygon style="fill:#F4A37A;" points="1277.116,1070.581 1232.568,1082.137 1295.91,1422.652 1325.458,1422.652 			"/>
		</g>
	</g>
	<g>
		<g>
			<path style="fill:#C46C3F;" d="M1277.116,1070.581l-44.548,11.556l1.08,5.804h24.458c7.547,0,14.6-2.146,20.591-5.853
				L1277.116,1070.581z"/>
		</g>
	</g>
	<g>
		<g>
			<g>
				<polygon style="fill:#FF8B7E;" points="1112.128,1060.372 1115.863,1082.137 1149.361,1082.137 1151.25,1060.372 				"/>
			</g>
		</g>
		<g>
			<g>
				<path style="fill:#FF8B7E;" d="M1290.925,1043.829c-14.082,10.429-31.46,16.542-50.122,16.542h-25.553l-2.93,21.765h45.786
					c18.396,0,33.448-15.051,33.448-33.447v0C1291.553,1047.011,1291.32,1045.389,1290.925,1043.829z"/>
			</g>
		</g>
		<g>
			<g>
				<path style="fill:#FF8B7E;" d="M998.26,1060.371h-29.295c-6.749,0-12.939-2.38-17.788-6.341
					c0,15.459,12.648,28.106,28.106,28.106h24.083L998.26,1060.371z"/>
			</g>
		</g>
	</g>
	<g>
		<g>
			<path style="fill:#FF9497;" d="M637.007,742.27H556.54c-2.695,0-4.727,2.467-4.183,5.107
				c5.772,28.045,10.219,61.571,13.054,94.484h62.724c2.836-32.912,7.282-66.438,13.055-94.484
				C641.733,744.738,639.702,742.27,637.007,742.27z"/>
		</g>
	</g>
	<g>
		<g>
			<path style="fill:#FF8387;" d="M635.343,780.479c0.996-6.555,2.055-12.965,3.174-19.181h-83.488
				c1.119,6.216,2.178,12.626,3.174,19.181H635.343z"/>
		</g>
	</g>
	<g>
		<g>
			<g>
				<path style="fill:#F6F6F7;" d="M576.855,684.607h-13.299c-1.378,0-2.494-1.116-2.494-2.494s1.116-2.494,2.494-2.494h13.299
					c5.958,0,10.806-4.848,10.806-10.806c0-1.378,1.116-2.494,2.494-2.494s2.494,1.116,2.494,2.494
					C592.648,677.523,585.563,684.607,576.855,684.607z"/>
			</g>
		</g>
	</g>
	<g>
		<g>
			<g>
				<path style="fill:#F6F6F7;" d="M593.573,727.599c-1.378,0-2.494-1.116-2.494-2.494c0-5.958-4.848-10.806-10.806-10.806h-34.95
					c-9.56,0-17.339-7.779-17.339-17.34c0-9.561,7.779-17.339,17.339-17.339c1.378,0,2.494,1.116,2.494,2.494
					s-1.116,2.494-2.494,2.494c-6.811,0-12.352,5.541-12.352,12.352s5.541,12.353,12.352,12.353h34.95
					c8.708,0,15.793,7.085,15.793,15.793C596.066,726.483,594.95,727.599,593.573,727.599z"/>
			</g>
		</g>
	</g>
	<g>
		<g>
			<path style="fill:#FFE91D;" d="M754.975,193.274c-38.658,0.082-70.958,31.07-72.55,69.696
				c-1.089,26.429,11.933,49.88,32.141,63.474c4.546,3.059,7.21,8.234,7.21,13.713v13.407c0,6.196,5.023,11.218,11.218,11.218
				h44.276c6.196,0,11.218-5.023,11.218-11.218v-13.188c0-5.559,2.647-10.857,7.258-13.964
				c19.394-13.069,32.157-35.221,32.157-60.367C827.902,225.802,795.237,193.189,754.975,193.274z"/>
		</g>
	</g>
	<g>
		<g>
			<path style="fill:#F6F6F7;" d="M777.27,364.782h-44.276c-2.535,0-4.866-0.851-6.744-2.269v20.005
				c0,8.034,6.512,14.546,14.546,14.546h28.672c8.034,0,14.546-6.513,14.546-14.546v-20.005
				C782.136,363.931,779.805,364.782,777.27,364.782z"/>
		</g>
	</g>
	<g>
		<g>
			<path style="fill:#91DFF2;" d="M769.468,397.064h-28.672c-1.163,0-2.289-0.151-3.374-0.409l4.253,10.486
				c1.155,3.284,4.256,5.481,7.737,5.481h11.439c3.481,0,6.582-2.197,7.737-5.481l4.253-10.486
				C771.757,396.913,770.631,397.064,769.468,397.064z"/>
		</g>
	</g>
	<g>
		<g>
			<rect x="726.25" y="377.362" style="fill:#D5D8E0;" width="57.765" height="4.713"/>
		</g>
	</g>
	<g>
		<g>
			<path style="fill:#FCB631;" d="M784.388,271.944c-6.213,0.443-11.081,5.854-11.081,12.319v6.845h-36.35v-6.845
				c0-6.465-4.868-11.876-11.081-12.319c-3.472-0.248-6.874,1.016-9.327,3.47c-2.453,2.453-3.718,5.853-3.469,9.326
				c0.444,6.214,5.856,11.081,12.32,11.081h6.845v7.108c0,5.638,2.021,11.099,5.69,15.377c2.937,3.426,4.555,7.797,4.555,12.309
				v34.168h4.713v-34.168c0-5.636-2.02-11.097-5.69-15.377c-2.937-3.424-4.555-7.796-4.555-12.308v-7.108h36.35v7.108
				c0,4.512-1.618,8.883-4.555,12.309c-3.67,4.279-5.69,9.74-5.69,15.376v34.168h4.713v-34.168c0-4.512,1.618-8.883,4.555-12.309
				c3.67-4.279,5.69-9.74,5.69-15.377v-7.108h6.845c6.464,0,11.876-4.867,12.32-11.081c0.248-3.474-1.017-6.874-3.471-9.327
				C791.261,272.959,787.866,271.691,784.388,271.944z M732.245,291.108h-6.845c-4.003,0-7.35-2.945-7.619-6.704
				c-0.15-2.109,0.615-4.171,2.102-5.658c1.363-1.363,3.21-2.12,5.135-2.12c0.174,0,0.349,0.006,0.524,0.018
				c3.759,0.268,6.704,3.614,6.704,7.618V291.108z M784.865,291.108h-6.845v-6.845c0-4.004,2.945-7.35,6.704-7.618
				c2.104-0.143,4.171,0.615,5.658,2.102c1.487,1.486,2.253,3.548,2.103,5.658C792.215,288.163,788.868,291.108,784.865,291.108z"/>
		</g>
	</g>
	<g>
		<g>
			<circle style="fill:#91DFF2;" cx="576.079" cy="144.031" r="69.177"/>
		</g>
	</g>
	<g>
		<g>
			<path style="fill:#AFE02E;" d="M645.256,456.142c0,38.205-30.972,69.177-69.177,69.177c-38.205,0-69.177-30.972-69.177-69.177
				s30.972-69.177,69.177-69.177C614.284,386.965,645.256,417.937,645.256,456.142z"/>
		</g>
	</g>
	<g>
		<g>
			<circle style="fill:#9D83E8;" cx="933.513" cy="144.031" r="69.177"/>
		</g>
	</g>
	<g>
		<g>
			<circle style="fill:#FF8B7E;" cx="917.814" cy="444.66" r="45.937"/>
		</g>
	</g>
	<g>
		<g>
			<g>
				<rect x="1268.907" y="334.632" style="fill:#E4E6EC;" width="83.138" height="85.958"/>
			</g>
		</g>
	</g>
	<g>
		<g>
			<g>
				<rect x="1268.907" y="454.033" style="fill:#E4E6EC;" width="83.138" height="85.958"/>
			</g>
		</g>
	</g>
	<g>
		<g>
			<g>
				<rect x="1393.613" y="454.033" style="fill:#E4E6EC;" width="83.138" height="85.958"/>
			</g>
		</g>
	</g>
	<g>
		<g>
			<g>
				<polygon style="fill:#E4E6EC;" points="1476.751,624.812 1476.751,573.435 1393.613,573.435 1393.613,659.392 1442.17,659.392 
									"/>
			</g>
		</g>
	</g>
	<g>
		<g>
			<path style="fill:#EF7756;" d="M1112.377,503.589c2.46,1.265,4.911,2.275,7.306,3.042l-0.402-5.419c0.002,0,0.004,0,0.006,0
				c-1.524-0.578-3.07-1.257-4.629-2.059c-1.228-0.629-2.728-0.146-3.358,1.077C1110.67,501.456,1111.153,502.959,1112.377,503.589z
				"/>
		</g>
	</g>
	<g>
		<g>
			<path style="fill:#EF7756;" d="M1101.767,515.963c1.157-0.748,1.489-2.291,0.741-3.447c-0.748-1.157-2.292-1.49-3.447-0.741
				c-13.769,8.897-26.871,12.358-38.176,10.248l-0.714,4.975c2.365,0.429,4.785,0.669,7.266,0.669
				C1078.104,527.666,1089.767,523.717,1101.767,515.963z"/>
		</g>
	</g>
	<g>
		<g>
			<rect x="898.348" y="146.039" style="fill:#FFFFFF;" width="22.402" height="29.879"/>
		</g>
	</g>
	<g>
		<g>
			<rect x="920.749" y="127.345" style="fill:#FFFFFF;" width="22.402" height="48.572"/>
		</g>
	</g>
	<g>
		<g>
			<rect x="943.151" y="108.652" style="fill:#FFFFFF;" width="22.402" height="67.265"/>
		</g>
	</g>
	<g>
		<g>
			<g>
				<path style="fill:#4A3CA3;" d="M1316.055,361.41h-26.239c-1.466,0-2.654-1.188-2.654-2.655c0-1.466,1.188-2.655,2.654-2.655
					h26.239c1.466,0,2.655,1.188,2.655,2.655C1318.709,360.221,1317.521,361.41,1316.055,361.41z"/>
			</g>
		</g>
	</g>
	<g>
		<g>
			<g>
				<path style="fill:#FFFFFF;" d="M1331.136,380.265h-41.32c-1.466,0-2.654-1.188-2.654-2.655s1.188-2.655,2.654-2.655h41.32
					c1.466,0,2.654,1.188,2.654,2.655S1332.602,380.265,1331.136,380.265z"/>
			</g>
		</g>
	</g>
	<g>
		<g>
			<g>
				<path style="fill:#FFFFFF;" d="M1331.136,399.122h-41.32c-1.466,0-2.654-1.188-2.654-2.655c0-1.466,1.188-2.655,2.654-2.655
					h41.32c1.466,0,2.654,1.188,2.654,2.655C1333.79,397.933,1332.602,399.122,1331.136,399.122z"/>
			</g>
		</g>
	</g>
	<g>
		<g>
			<g>
				<path style="fill:#4A3CA3;" d="M1316.055,480.81h-26.239c-1.466,0-2.654-1.188-2.654-2.655s1.188-2.655,2.654-2.655h26.239
					c1.466,0,2.655,1.188,2.655,2.655S1317.521,480.81,1316.055,480.81z"/>
			</g>
		</g>
	</g>
	<g>
		<g>
			<g>
				<path style="fill:#FFFFFF;" d="M1331.136,499.667h-41.32c-1.466,0-2.654-1.188-2.654-2.655c0-1.466,1.188-2.655,2.654-2.655
					h41.32c1.466,0,2.654,1.188,2.654,2.655C1333.79,498.479,1332.602,499.667,1331.136,499.667z"/>
			</g>
		</g>
	</g>
	<g>
		<g>
			<g>
				<path style="fill:#FFFFFF;" d="M1331.136,518.523h-41.32c-1.466,0-2.654-1.188-2.654-2.655s1.188-2.655,2.654-2.655h41.32
					c1.466,0,2.654,1.188,2.654,2.655S1332.602,518.523,1331.136,518.523z"/>
			</g>
		</g>
	</g>
	<g>
		<g>
			<g>
				<path style="fill:#4A3CA3;" d="M1440.761,480.81h-26.239c-1.466,0-2.655-1.188-2.655-2.655s1.188-2.655,2.655-2.655h26.239
					c1.466,0,2.654,1.188,2.654,2.655S1442.227,480.81,1440.761,480.81z"/>
			</g>
		</g>
	</g>
	<g>
		<g>
			<g>
				<path style="fill:#FFFFFF;" d="M1455.842,499.667h-41.32c-1.466,0-2.655-1.188-2.655-2.655c0-1.466,1.188-2.655,2.655-2.655
					h41.32c1.466,0,2.654,1.188,2.654,2.655C1458.496,498.479,1457.308,499.667,1455.842,499.667z"/>
			</g>
		</g>
	</g>
	<g>
		<g>
			<g>
				<path style="fill:#FFFFFF;" d="M1455.842,518.523h-41.32c-1.466,0-2.655-1.188-2.655-2.655s1.188-2.655,2.655-2.655h41.32
					c1.466,0,2.654,1.188,2.654,2.655S1457.308,518.523,1455.842,518.523z"/>
			</g>
		</g>
	</g>
	<g>
		<g>
			<g>
				<path style="fill:#4A3CA3;" d="M1440.761,600.212h-26.239c-1.466,0-2.655-1.188-2.655-2.654s1.188-2.655,2.655-2.655h26.239
					c1.466,0,2.654,1.188,2.654,2.655S1442.227,600.212,1440.761,600.212z"/>
			</g>
		</g>
	</g>
	<g>
		<g>
			<g>
				<path style="fill:#FFFFFF;" d="M1429.149,619.068h-14.627c-1.466,0-2.655-1.188-2.655-2.655c0-1.466,1.188-2.654,2.655-2.654
					h14.627c1.466,0,2.655,1.188,2.655,2.654C1431.804,617.88,1430.615,619.068,1429.149,619.068z"/>
			</g>
		</g>
	</g>
	<g>
		<g>
			<g>
				<path style="fill:#FFFFFF;" d="M1429.149,637.925h-14.627c-1.466,0-2.655-1.188-2.655-2.655s1.188-2.655,2.655-2.655h14.627
					c1.466,0,2.655,1.188,2.655,2.655S1430.615,637.925,1429.149,637.925z"/>
			</g>
		</g>
	</g>
	<g>
		<g>
			<path style="fill:#FFE91D;" d="M1129.036,778.901l-6.884-239.018l23.572,9.701c0,0,25.052,69.126,34.795,99.281l-25.361,19.485
				l23.196,16.238l-18.802,90.074L1129.036,778.901z"/>
		</g>
	</g>
	<g>
		<g>
			<g>
				<path style="fill:#FFE91D;" d="M1025.497,796.738c4-1.381,8.208-2.151,12.486-2.236l7.631-0.149l11.73-247.668l-21.573,16.353
					c0,0-16.972,43.261-26.715,94.758l20.103,14.691l-21.959,13.397C1007.202,685.885,1019.42,729.695,1025.497,796.738z"/>
			</g>
		</g>
	</g>
	<g>
		<g>
			<rect x="403.9" y="841.861" style="fill:#E89360;" width="879.611" height="36.148"/>
		</g>
	</g>
	<g>
		<g>
			
				<rect x="1283.511" y="841.861" transform="matrix(-1 -1.224647e-16 1.224647e-16 -1 2772.1096 1719.869)" style="fill:#F4A37A;" width="205.087" height="36.148"/>
		</g>
	</g>
	<g>
		<g>
			<path style="fill:#E4E6EC;" d="M888.552,831.751c0-5.56,4.549-10.11,10.11-10.11H707.523c-5.56,0-10.11,4.549-10.11,10.11
				c0,5.561,4.549,10.11,10.11,10.11h191.139C893.102,841.861,888.552,837.311,888.552,831.751z"/>
		</g>
	</g>
	<g>
		<g>
			<path style="fill:#F6F6F7;" d="M974.72,831.072l13.139-9.431h-89.197c-5.56,0-10.11,4.549-10.11,10.11
				c0,5.561,4.549,10.11,10.11,10.11h79.529C972.407,841.861,970.021,834.444,974.72,831.072z"/>
		</g>
	</g>
	<g>
		<g>
			<path style="fill:#FFFFFF;" d="M879.864,672.31c-0.966-4.217-4.719-7.207-9.045-7.207h0c-5.962,0-10.378,5.542-9.046,11.354
				l33.275,145.184h19.042L879.864,672.31z"/>
		</g>
	</g>
	<g>
		<g>
			<path style="fill:#F6F6F7;" d="M870.818,665.103H667.965c-6.615,0-11.514,6.149-10.036,12.597l31.03,135.387
				c1.147,5.005,5.601,8.554,10.736,8.554h195.354l-33.275-145.184C860.44,670.645,864.856,665.103,870.818,665.103z"/>
		</g>
	</g>
	<g>
		<g>
			<path style="fill:#E4E6EC;" d="M789.726,745.079c-2.288-10.121-11.367-16.693-20.279-14.679
				c-8.911,2.015-14.281,11.853-11.992,21.974s11.367,16.693,20.279,14.679C786.646,765.039,792.015,755.2,789.726,745.079z"/>
		</g>
	</g>
	<g>
		<g>
			<path style="fill:#F99132;" d="M1285.16,770.2c-2.873-2.313-6.214-4.417-9.931-6.257c-9.669-4.782-20.863-7.044-32.375-6.54
				l-5.524,0.242l0.392,4.975l5.351-0.234c10.674-0.468,21.03,1.618,29.945,6.027c3.391,1.678,6.424,3.586,9.014,5.672
				c1.075,0.865,2.644,0.694,3.507-0.378C1286.402,772.634,1286.233,771.064,1285.16,770.2z"/>
		</g>
	</g>
	<g>
		<g>
			<g>
				<polygon style="fill:#F6F6F7;" points="1442.17,624.812 1442.17,659.392 1476.751,624.812 				"/>
			</g>
		</g>
	</g>
	<g>
		<g>
			<circle style="fill:#FCCBBE;" cx="917.814" cy="435.14" r="18.755"/>
		</g>
	</g>
	<g>
		<g>
			<g>
				<path style="fill:#FFE91D;" d="M917.814,453.895c-13.293,0-25.231,8.571-33.493,22.187c8.38,8.929,20.281,14.515,33.493,14.515
					c13.212,0,25.113-5.586,33.493-14.515C943.045,462.466,931.107,453.895,917.814,453.895z"/>
			</g>
		</g>
	</g>
	<g>
		<g>
			<g>
				<path style="fill:#7566DA;" d="M578.195,175.205c-0.61,0-1.22-0.235-1.681-0.705l-22.797-23.205
					c-0.912-0.928-0.899-2.42,0.029-3.332c0.928-0.913,2.42-0.9,3.332,0.029l22.797,23.205c0.912,0.928,0.899,2.42-0.029,3.332
					C579.388,174.98,578.791,175.205,578.195,175.205z"/>
			</g>
		</g>
	</g>
	<g>
		<g>
			<g>
				<path style="fill:#7566DA;" d="M555.398,141.395c-0.96,0-1.863-0.592-2.213-1.546c-0.447-1.222,0.18-2.576,1.402-3.024
					l40.646-14.889c1.224-0.444,2.576,0.18,3.024,1.402c0.447,1.222-0.18,2.576-1.402,3.024l-40.646,14.889
					C555.941,141.348,555.667,141.395,555.398,141.395z"/>
			</g>
		</g>
	</g>
	<g>
		<g>
			<circle style="fill:#9D83E8;" cx="547.736" cy="141.845" r="16.135"/>
		</g>
	</g>
	<g>
		<g>
			<circle style="fill:#9D83E8;" cx="584.26" cy="179.023" r="12.504"/>
		</g>
	</g>
	<g>
		<g>
			<circle style="fill:#9D83E8;" cx="602.348" cy="121.84" r="14.76"/>
		</g>
	</g>
	<g>
		<g>
			<path style="fill:#9D83E8;" d="M559.866,471.476c-1.925-1.925-3.542-4.037-4.916-6.256l-16.621,16.621
				c-3.085,3.085-3.085,8.087,0,11.172c3.085,3.085,8.087,3.085,11.172,0l16.621-16.621
				C563.903,475.018,561.792,473.401,559.866,471.476z"/>
		</g>
	</g>
	<g>
		<g>
			<circle style="fill:#F6F6F7;" cx="584.187" cy="447.155" r="34.395"/>
		</g>
	</g>
	<g>
		<g>
			<g>
				<path style="fill:#4AC0F0;" d="M580.896,460.551c-0.603,0-1.206-0.23-1.666-0.69l-10.115-10.115c-0.92-0.92-0.92-2.412,0-3.332
					c0.921-0.921,2.412-0.921,3.332,0l8.449,8.449l12.945-12.945c0.92-0.92,2.412-0.92,3.332,0c0.92,0.92,0.92,2.412,0,3.332
					l-14.611,14.611C582.102,460.321,581.499,460.551,580.896,460.551z"/>
			</g>
		</g>
	</g>
	<g>
		<g>
			<g>
				<path style="fill:#1C3C4F;" d="M1632.507,1425.146H367.493c-1.378,0-2.494-1.116-2.494-2.494c0-1.378,1.116-2.494,2.494-2.494
					h1265.015c1.378,0,2.494,1.116,2.494,2.494C1635.001,1424.03,1633.885,1425.146,1632.507,1425.146z"/>
			</g>
		</g>
	</g>
	<g>
		<g>
			<path style="fill:#EF7756;" d="M814.312,529.903l-9.008-27.249c-1.076-2.905-3.846-4.722-6.815-4.726l11.088,33.539
				c0.733,2.221-0.686,4.693-3.163,5.51c-1.222,0.403-2.516,0.34-3.64-0.177c-1.064-0.49-1.839-1.332-2.181-2.37l-9.007-26.978
				c-0.993-3.01-3.796-4.911-6.806-4.964l11.077,33.506c0.342,1.037,0.22,2.175-0.343,3.201c-0.595,1.085-1.596,1.905-2.82,2.309
				c-1.223,0.403-2.515,0.341-3.64-0.177c-1.064-0.49-1.838-1.331-2.181-2.368c0,0,0-0.001,0-0.002l-7.53-22.15
				c-0.981-2.971-3.724-4.866-6.689-4.966l9.484,28.681c0,0,0,0,0,0c0.731,2.221-0.688,4.691-3.164,5.509
				c-1.222,0.403-2.941,0.275-4.065-0.242c-0.674-0.31-1.214-0.774-1.619-1.326c0.287,0.521,0.615,1.011,1.008,1.439
				c0.793,2.112,1.49,3.893,2.084,5.322c0.336,0.033,0.668,0.058,0.975,0.058c1.065,0,2.138-0.171,3.181-0.515
				c2.736-0.903,4.812-2.855,5.909-5.216c0.179,0.096,0.335,0.219,0.522,0.306c1.296,0.597,2.695,0.898,4.108,0.898
				c1.065,0,2.138-0.171,3.18-0.515c2.426-0.8,4.426-2.45,5.63-4.646c0.103-0.188,0.189-0.38,0.278-0.571
				c0.179,0.097,0.336,0.22,0.523,0.306c1.297,0.597,2.696,0.899,4.109,0.899c1.065,0,2.138-0.171,3.181-0.516
				C813.065,540.034,815.907,534.736,814.312,529.903z"/>
		</g>
	</g>
	<g>
		<g>
			<path style="fill:#F99132;" d="M1174.359,767.215c-1.309,0.194-2.279,1.317-2.279,2.641c0,1.62,1.432,2.867,3.036,2.644
				l46.883-6.514l2.132-6.122L1174.359,767.215z"/>
		</g>
	</g>
	<g>
		<g>
			<path style="fill:#FF9497;" d="M1240.622,763.399l-18.623,2.587c-2.607-22.596,0.349-43.423,3.242-56.766l29.982,53.717
				l0.108,0.035C1250.443,762.582,1245.506,762.72,1240.622,763.399z"/>
		</g>
	</g>
	<g>
		<g>
			<path style="fill:#1C3C4F;" d="M1026.2,929.371c-0.843-1.087-2.41-1.287-3.499-0.442c-29.619,22.978-43.93,60.694-37.341,97.292
				l4.995-0.39c-6.481-34.935,7.118-71.018,35.403-92.961C1026.847,932.026,1027.044,930.46,1026.2,929.371z"/>
		</g>
	</g>
	<g>
		
			<ellipse transform="matrix(0.0126 -0.9999 0.9999 0.0126 596.512 1534.1997)" style="fill:#1C3C4F;" cx="1075.114" cy="465.05" rx="6.721" ry="5.85"/>
	</g>
	<g>
		
			<ellipse transform="matrix(0.0126 -0.9999 0.9999 0.0126 564.9576 1503.4045)" style="fill:#1C3C4F;" cx="1043.743" cy="465.63" rx="6.721" ry="5.85"/>
	</g>
	<g>
		<path style="fill:#EF7756;" d="M1060.371,500.227c-4.61,0-7.584-1.032-7.817-1.114c-1.343-0.485-2.041-1.963-1.56-3.306
			c0.481-1.335,1.942-2.025,3.292-1.564c0.382,0.14,9.192,3.065,20.096-2.968c1.245-0.698,2.817-0.241,3.512,1.009
			c0.691,1.246,0.239,2.817-1.009,3.508C1070.546,499.304,1064.727,500.227,1060.371,500.227z"/>
	</g>
	<g>
		<path style="fill:#EF7756;" d="M1051.656,487.17c-0.698,0-1.397-0.283-1.907-0.842c-0.962-1.052-0.889-2.685,0.165-3.647
			c5.194-4.749,5.399-13.457,5.401-13.546c0.023-1.42,1.036-2.542,2.621-2.542c1.424,0.023,2.561,1.187,2.543,2.611
			c-0.006,0.45-0.217,11.012-7.081,17.287C1052.904,486.945,1052.279,487.17,1051.656,487.17z"/>
	</g>
</g>
</svg>
